<?xml version="1.0" standalone="no"?>
<!DOCTYPE svg PUBLIC "-//W3C//DTD SVG 20010904//EN"
 "http://www.w3.org/TR/2001/REC-SVG-20010904/DTD/svg10.dtd">
<svg version="1.0" xmlns="http://www.w3.org/2000/svg"
 width="1080.000000pt" height="1080.000000pt" viewBox="0 0 1080.000000 1080.000000"
 preserveAspectRatio="xMidYMid meet">
<metadata>
Created by potrace 1.14, written by Peter Selinger 2001-2017
</metadata>
<g transform="translate(0.000000,1080.000000) scale(0.100000,-0.100000)"
fill="#000000" stroke="none">
<path d="M5047 7710 c-43 -13 -96 -58 -115 -97 -14 -30 -20 -34 -43 -29 -63
12 -148 -37 -171 -99 -9 -28 -19 -36 -45 -41 -41 -8 -89 -53 -96 -90 -7 -39 9
-87 39 -115 l26 -24 361 -3 c360 -2 362 -2 402 21 74 42 105 137 69 214 -21
43 -72 82 -117 90 -28 4 -37 11 -42 32 -26 106 -156 174 -268 141z m151 -24
c41 -21 82 -69 97 -112 11 -33 19 -40 64 -54 83 -27 111 -65 111 -147 0 -54
-22 -95 -66 -124 -27 -18 -53 -19 -387 -19 -227 0 -365 4 -378 10 -24 13 -49
61 -49 96 0 37 59 94 98 94 26 0 31 5 37 31 15 68 102 120 175 105 21 -4 30
-2 30 7 0 23 49 81 88 104 44 27 137 31 180 9z"/>
<path d="M4796 7064 c-25 -62 -26 -68 -11 -90 28 -43 95 -27 95 23 0 22 -44
133 -53 133 -3 0 -17 -30 -31 -66z m55 -18 c21 -48 18 -72 -12 -81 -22 -7 -49
10 -49 31 0 16 30 94 37 94 2 0 13 -20 24 -44z"/>
<path d="M5012 7083 c-34 -81 -35 -93 -16 -114 19 -21 64 -25 82 -7 7 7 12 22
12 35 0 22 -44 133 -53 133 -3 0 -14 -21 -25 -47z m44 -28 c20 -49 18 -82 -6
-90 -23 -7 -50 10 -50 31 0 16 30 94 37 94 2 0 11 -16 19 -35z"/>
<path d="M5215 7068 c-36 -79 -28 -111 28 -116 31 -3 39 1 48 22 10 21 8 36
-11 86 -12 33 -26 62 -30 65 -4 3 -20 -23 -35 -57z m51 -13 c20 -49 18 -82 -6
-90 -25 -8 -50 10 -50 36 0 18 30 89 37 89 2 0 11 -16 19 -35z"/>
<path d="M5573 7043 c-17 -60 -9 -136 20 -187 25 -45 26 -50 10 -61 -14 -10
-19 -6 -38 29 -19 38 -102 106 -128 106 -16 0 -1 -112 21 -156 11 -21 29 -47
40 -58 l21 -18 -28 -57 c-44 -88 -67 -172 -86 -313 l-6 -47 -54 43 c-29 25
-63 47 -74 51 -21 6 -29 25 -11 25 16 0 50 62 50 93 0 15 -7 41 -15 56 -15 29
-101 111 -116 111 -13 0 -24 -49 -23 -106 0 -36 8 -68 27 -104 l27 -53 -31 7
c-17 3 -37 6 -43 6 -6 0 -11 18 -11 44 0 53 -22 82 -74 96 -40 11 -131 14
-131 3 0 -20 56 -96 86 -117 l35 -23 -51 -7 c-45 -6 -54 -4 -81 19 -35 29 -58
31 -102 9 -34 -17 -87 -63 -87 -75 0 -27 138 -38 180 -14 14 8 37 14 52 15
l27 0 -25 -25 c-31 -31 -54 -84 -54 -126 0 -29 2 -31 28 -24 56 13 113 47 128
77 15 29 15 42 -1 81 -6 15 -1 17 36 17 60 0 75 -11 49 -35 -11 -10 -24 -34
-30 -54 -12 -43 -13 -111 -2 -111 26 0 116 82 133 121 6 16 16 29 22 29 6 0
31 -21 57 -48 34 -35 57 -74 89 -151 58 -141 71 -208 71 -386 0 -140 11 -260
26 -274 10 -11 208 -5 236 7 l27 11 -20 72 c-29 107 -73 214 -161 403 -87 185
-86 181 -32 246 27 32 139 120 153 120 3 0 4 -23 2 -52 -2 -28 2 -68 8 -89 13
-42 56 -99 75 -99 19 0 54 41 67 78 9 27 8 39 -11 77 -12 25 -40 60 -61 77
-32 26 -37 33 -24 40 11 7 25 -2 53 -32 34 -35 44 -40 84 -40 47 0 144 25 153
39 7 13 -81 69 -128 82 l-39 10 47 30 c26 17 65 37 87 46 44 17 58 38 58 83 0
34 -29 99 -54 119 -21 17 -40 2 -68 -53 -16 -32 -19 -51 -15 -96 6 -54 5 -57
-22 -73 -40 -24 -46 -21 -22 9 41 52 22 115 -55 183 -52 46 -60 49 -68 24 -23
-80 -13 -149 30 -216 14 -22 24 -40 22 -42 -2 -1 -34 -12 -73 -25 -103 -33
-189 -92 -253 -172 -16 -21 -32 -35 -36 -31 -16 17 6 238 35 337 10 38 11 38
22 16 21 -40 60 -61 127 -67 62 -6 62 -6 55 18 -21 67 -67 122 -120 145 l-36
15 18 30 c31 52 106 121 158 145 40 19 60 22 100 18 42 -5 54 -2 79 17 35 28
56 75 56 128 0 39 -1 39 -28 32 -51 -15 -89 -39 -120 -78 -56 -67 -62 -73 -77
-73 -9 0 -15 10 -15 26 0 41 -29 92 -74 128 -61 49 -65 50 -73 19z"/>
<path d="M4916 6890 c-40 -86 -32 -130 24 -130 55 0 64 45 26 131 l-24 54 -26
-55z m49 -37 c20 -51 13 -76 -23 -81 -34 -5 -45 28 -25 82 10 25 20 46 24 46
3 0 14 -21 24 -47z"/>
<path d="M5121 6881 c-34 -81 -25 -121 29 -121 32 0 50 17 50 48 0 27 -39 122
-50 122 -4 0 -17 -22 -29 -49z m54 -31 c18 -55 10 -80 -25 -80 -35 0 -43 25
-25 80 9 27 20 50 25 50 5 0 16 -23 25 -50z"/>
<path d="M8030 5291 c0 -6 15 -11 33 -13 l32 -3 2 -225 c2 -211 1 -223 -13
-195 -24 45 -75 96 -111 111 -70 30 -167 8 -227 -52 -49 -49 -70 -109 -70
-199 -1 -107 22 -171 78 -223 107 -98 261 -69 325 61 l21 42 0 -77 0 -78 80 0
c47 0 80 4 80 10 0 6 -10 10 -23 10 -47 0 -47 0 -47 432 l0 408 -80 0 c-44 0
-80 -4 -80 -9z m-30 -363 c111 -76 132 -297 38 -403 -83 -95 -182 -83 -238 30
-22 44 -25 63 -25 155 0 90 3 112 24 153 13 28 37 57 55 68 43 26 105 25 146
-3z"/>
<path d="M4330 5190 c-11 -11 -20 -26 -20 -33 0 -24 31 -57 55 -57 52 0 74 65
33 94 -30 21 -44 20 -68 -4z"/>
<path d="M5327 5108 c-4 -16 -9 -40 -12 -54 -8 -39 -48 -73 -94 -80 -45 -7
-46 -24 -1 -24 l29 0 3 -208 c3 -180 5 -212 21 -235 30 -46 75 -67 141 -67 70
0 114 23 141 74 27 50 13 54 -18 7 -33 -50 -83 -67 -133 -46 -54 22 -58 39
-62 268 l-4 207 95 0 c129 0 137 18 10 22 l-98 3 -5 80 c-4 59 -7 73 -13 53z"/>
<path d="M4837 5023 c-8 -10 -25 -39 -36 -65 -34 -80 -152 -288 -177 -313 -49
-49 -14 -138 70 -180 107 -53 287 -23 335 57 53 87 38 140 -77 259 -48 50 -92
100 -99 112 -17 30 -16 71 1 112 16 38 9 45 -17 18z m33 -288 c84 -90 104
-126 96 -173 -10 -67 -64 -102 -156 -102 -72 0 -122 19 -145 54 -17 25 -17 28
9 65 25 35 27 71 5 71 -17 0 -9 21 49 126 l57 105 9 -36 c5 -24 32 -62 76
-110z"/>
<path d="M2833 4969 c-39 -11 -92 -62 -116 -110 l-17 -34 0 73 0 72 -82 0
c-50 0 -78 -4 -72 -9 5 -5 20 -11 34 -13 l25 -3 3 -229 c3 -243 0 -256 -44
-256 -13 0 -24 -4 -24 -10 0 -13 217 -13 225 -1 3 5 -9 11 -27 13 l-33 3 0
165 c0 153 2 168 24 213 57 117 184 139 224 38 14 -33 17 -78 17 -225 0 -197
0 -196 -51 -196 -11 0 -17 -4 -14 -10 4 -6 53 -10 116 -10 66 0 109 4 109 10
0 6 -11 10 -24 10 -44 0 -48 18 -45 177 4 141 6 151 34 208 25 50 38 64 78 84
58 28 98 22 131 -22 20 -27 21 -41 21 -235 l0 -207 -33 -3 c-18 -2 -30 -8 -27
-13 8 -12 225 -12 225 1 0 6 -10 10 -23 10 -44 0 -47 13 -47 221 0 187 -1 198
-23 230 -74 111 -250 81 -319 -55 l-15 -29 -11 45 c-23 89 -111 128 -219 97z"/>
<path d="M3790 4971 c-106 -33 -165 -111 -177 -237 -11 -119 47 -232 142 -275
49 -23 171 -25 219 -5 96 40 148 131 148 258 0 129 -56 217 -159 254 -41 14
-133 17 -173 5z m148 -31 c53 -33 86 -115 86 -220 1 -102 -16 -165 -56 -214
-78 -95 -202 -51 -243 86 -41 140 5 324 89 358 37 15 90 11 124 -10z"/>
<path d="M5848 4970 c-113 -34 -176 -143 -166 -288 6 -77 27 -130 71 -173 47
-47 85 -62 173 -67 88 -5 137 11 180 60 20 21 54 80 54 93 0 16 -18 0 -35 -31
-79 -147 -283 -129 -330 29 -8 28 -15 66 -15 84 l0 33 195 0 195 0 0 28 c0 98
-74 208 -155 231 -46 13 -127 13 -167 1z m142 -25 c39 -20 69 -80 77 -155 l6
-60 -148 0 -148 0 6 51 c17 139 111 214 207 164z"/>
<path d="M6605 4968 c-49 -18 -83 -47 -112 -96 l-28 -47 -3 73 -3 72 -81 0
c-50 0 -78 -4 -72 -9 5 -5 20 -11 34 -13 l25 -3 0 -240 0 -240 -27 -3 c-16 -2
-28 -8 -28 -13 0 -5 49 -9 110 -9 67 0 110 4 110 10 0 6 -11 10 -25 10 -41 0
-48 29 -43 179 4 112 9 145 28 189 26 60 64 96 119 113 46 14 83 0 115 -44 19
-26 21 -44 24 -218 4 -203 1 -219 -44 -219 -13 0 -24 -4 -24 -10 0 -13 217
-13 225 -1 3 5 -9 11 -27 13 l-33 3 -5 205 c-4 173 -8 210 -23 238 -32 59
-133 88 -212 60z"/>
<path d="M7198 4970 c-108 -32 -168 -127 -168 -266 0 -79 23 -143 66 -188 54
-55 89 -69 184 -73 75 -3 90 -1 125 19 50 29 127 138 97 138 -4 0 -16 -17 -27
-37 -41 -75 -132 -115 -212 -94 -73 20 -133 111 -133 202 l0 39 196 0 197 0
-7 51 c-4 28 -14 69 -23 90 -19 47 -83 105 -132 119 -42 12 -125 12 -163 0z
m141 -25 c37 -19 71 -88 78 -160 l6 -55 -148 0 -148 0 6 51 c17 139 111 214
206 164z"/>
<path d="M4256 4961 c5 -5 20 -11 34 -13 l25 -3 0 -240 0 -240 -33 -3 c-18 -2
-30 -8 -27 -13 8 -12 225 -12 225 1 0 6 -10 10 -23 10 -45 0 -47 10 -47 267
l0 243 -82 0 c-50 0 -78 -4 -72 -9z"/>
<path d="M3570 4145 c0 -21 5 -25 30 -25 l30 0 0 -90 c0 -83 1 -90 20 -90 19
0 20 7 20 90 l0 90 35 0 c31 0 35 3 35 25 0 25 -1 25 -85 25 -84 0 -85 0 -85
-25z"/>
<path d="M3760 4055 c0 -108 1 -115 20 -115 17 0 20 7 20 45 l0 45 45 0 45 0
0 -45 c0 -38 3 -45 20 -45 19 0 20 7 20 115 0 108 -1 115 -20 115 -17 0 -20
-7 -20 -45 l0 -45 -45 0 -45 0 0 45 c0 38 -3 45 -20 45 -19 0 -20 -7 -20 -115z"/>
<path d="M3960 4055 l0 -115 70 0 c68 0 70 1 70 25 0 23 -3 25 -50 25 -43 0
-50 3 -50 20 0 17 7 20 50 20 47 0 50 2 50 25 0 23 -3 25 -50 25 -43 0 -50 3
-50 20 0 17 7 20 50 20 47 0 50 2 50 25 0 24 -2 25 -70 25 l-70 0 0 -115z"/>
<path d="M4213 4156 c3 -7 16 -59 28 -115 21 -91 25 -101 45 -101 24 0 28 9
40 73 10 56 19 52 33 -14 10 -51 15 -59 34 -59 21 0 25 10 46 98 12 53 25 105
28 115 3 13 -2 17 -19 17 -21 0 -26 -7 -38 -62 l-13 -63 -14 50 c-8 28 -16 56
-18 63 -3 6 -13 12 -24 12 -15 0 -23 -10 -31 -42 -21 -84 -25 -86 -40 -20 -11
56 -15 62 -37 62 -17 0 -23 -4 -20 -14z"/>
<path d="M4550 4165 c0 -2 -18 -54 -39 -115 l-40 -110 24 0 c17 0 26 8 34 30
9 26 15 30 46 30 32 0 38 -4 48 -30 8 -21 18 -30 34 -30 13 0 23 2 23 4 0 2
-11 35 -25 72 -14 38 -32 88 -41 112 -13 33 -21 42 -40 42 -13 0 -24 -2 -24
-5z m40 -102 c0 -7 -7 -13 -16 -13 -11 0 -14 5 -10 16 3 9 6 21 6 27 0 16 20
-14 20 -30z"/>
<path d="M4680 4165 c0 -3 14 -32 30 -65 21 -43 30 -74 30 -110 0 -43 3 -50
20 -50 18 0 20 7 20 55 0 40 8 72 29 115 l28 60 -23 0 c-16 0 -29 -10 -40 -32
l-17 -33 -15 33 c-11 22 -22 32 -39 32 -13 0 -23 -2 -23 -5z"/>
<path d="M4960 4145 c0 -21 5 -25 30 -25 l30 0 0 -90 c0 -83 1 -90 20 -90 19
0 20 7 20 90 l0 90 35 0 c31 0 35 3 35 25 0 25 -1 25 -85 25 -84 0 -85 0 -85
-25z"/>
<path d="M5200 4153 c-69 -36 -77 -148 -13 -191 37 -24 105 -22 133 3 37 32
53 81 40 119 -23 72 -95 102 -160 69z m98 -49 c15 -10 22 -25 22 -49 0 -63
-80 -89 -119 -39 -12 15 -21 32 -21 39 0 7 9 24 21 39 24 30 63 34 97 10z"/>
<path d="M5490 4055 c0 -108 1 -115 20 -115 16 0 20 7 20 34 0 41 17 55 35 30
37 -53 52 -66 73 -62 22 3 22 5 -17 57 -23 30 -41 58 -41 61 0 4 16 28 35 53
19 25 35 48 35 51 0 3 -11 6 -24 6 -18 0 -34 -13 -58 -46 l-33 -47 -3 47 c-3
38 -7 46 -23 46 -18 0 -19 -8 -19 -115z"/>
<path d="M5680 4055 l0 -115 70 0 c68 0 70 1 70 25 0 23 -3 25 -50 25 -43 0
-50 3 -50 20 0 17 7 20 50 20 47 0 50 2 50 25 0 23 -3 25 -50 25 -43 0 -50 3
-50 20 0 17 7 20 50 20 47 0 50 2 50 25 0 24 -2 25 -70 25 l-70 0 0 -115z"/>
<path d="M5840 4055 l0 -115 70 0 c68 0 70 1 70 25 0 23 -3 25 -50 25 -43 0
-50 3 -50 20 0 17 7 20 50 20 47 0 50 2 50 25 0 23 -3 25 -50 25 -43 0 -50 3
-50 20 0 17 7 20 50 20 47 0 50 2 50 25 0 24 -2 25 -70 25 l-70 0 0 -115z"/>
<path d="M6000 4055 c0 -108 1 -115 20 -115 17 0 20 7 20 45 0 37 3 45 19 45
10 0 30 9 45 21 56 44 16 119 -65 119 l-39 0 0 -115z m85 45 c0 -8 -10 -16
-22 -18 -18 -3 -23 2 -23 18 0 16 5 21 23 18 12 -2 22 -10 22 -18z"/>
<path d="M6250 4055 c0 -108 1 -115 20 -115 19 0 20 7 20 115 0 108 -1 115
-20 115 -19 0 -20 -7 -20 -115z"/>
<path d="M6320 4145 c0 -21 5 -25 30 -25 l30 0 0 -90 c0 -83 1 -90 20 -90 19
0 20 7 20 90 l0 90 35 0 c31 0 35 3 35 25 0 25 -1 25 -85 25 -84 0 -85 0 -85
-25z"/>
<path d="M6603 4156 c3 -7 16 -59 28 -115 21 -91 25 -101 45 -101 24 0 28 9
40 73 10 56 19 52 33 -14 10 -51 15 -59 34 -59 21 0 25 10 46 98 12 53 25 105
28 115 3 13 -2 17 -19 17 -21 0 -26 -7 -38 -62 l-13 -63 -14 50 c-8 28 -16 56
-18 63 -3 6 -13 12 -24 12 -15 0 -23 -10 -31 -42 -21 -84 -25 -86 -40 -20 -11
56 -15 62 -37 62 -17 0 -23 -4 -20 -14z"/>
<path d="M6880 4055 l0 -115 70 0 c68 0 70 1 70 25 0 23 -3 25 -50 25 -43 0
-50 3 -50 20 0 17 7 20 50 20 47 0 50 2 50 25 0 23 -3 25 -50 25 -43 0 -50 3
-50 20 0 17 7 20 50 20 47 0 50 2 50 25 0 24 -2 25 -70 25 l-70 0 0 -115z"/>
<path d="M7040 4145 c0 -22 4 -25 35 -25 l35 0 0 -90 c0 -83 1 -90 20 -90 19
0 20 7 20 90 l0 90 30 0 c25 0 30 4 30 25 0 25 -1 25 -85 25 -84 0 -85 0 -85
-25z"/>
</g>
</svg>
