<svg width="427.84291554226405" height="435.59375000000006" viewBox="0 0 312.50000000000006 318.1612735189798" class="css-1j8o68f">
	<defs id="SvgjsDefs4620"></defs>
	<g id="SvgjsG6605" featurekey="symbolFeature-0" transform="matrix(0.8666762911134624,0,0,0.8666762911134624,112.66112949438848,74.6666185444327)" fill="#111111">
		<g xmlns="http://www.w3.org/2000/svg">
			<g>
				<path d="M77.191,21.688c-0.109,0-0.219,0.002-0.33,0.006C75.486,12.128,67.313,5,57.564,5c-8.313,0-15.801,5.394-18.469,13.206    c-1.432-0.419-2.89-0.632-4.345-0.632c-7.73,0-14.194,5.606-15.339,13.164c-0.396-0.045-0.761-0.067-1.112-0.067    c-6.058,0-10.985,4.938-10.985,11.008c0,6.063,4.928,10.994,10.985,10.994h58.893c8.543,0,15.494-6.946,15.494-15.484    C92.686,28.642,85.734,21.688,77.191,21.688z M77.191,51.197H18.3c-5.244,0-9.51-4.271-9.51-9.521c0-5.256,4.266-9.533,9.51-9.533    c0.479,0,0.996,0.05,1.626,0.157l0.777,0.132l0.08-0.785c0.734-7.183,6.739-12.601,13.968-12.601c1.514,0,3.099,0.27,4.584,0.781    l0.727,0.25l0.22-0.737c2.26-7.576,9.366-12.867,17.282-12.867c9.229,0,16.934,6.912,17.918,16.078l0.078,0.721l0.723-0.065    c0.316-0.029,0.609-0.045,0.91-0.045c7.729,0,14.019,6.291,14.019,14.024C91.211,44.913,84.922,51.197,77.191,51.197z"></path>
				<path d="M30.911,59.666l-0.66,1.318c-0.447,0.896-4.374,8.816-4.374,11.295c0,2.773,2.258,5.033,5.034,5.033    c2.776,0,5.035-2.26,5.035-5.033c0-2.479-3.928-10.399-4.375-11.295L30.911,59.666z M30.911,75.837    c-1.962,0-3.559-1.597-3.559-3.558c0-1.415,1.938-5.914,3.559-9.288c1.621,3.374,3.56,7.873,3.56,9.288    C34.471,74.24,32.874,75.837,30.911,75.837z"></path>
				<path d="M50.388,59.667l-0.659,1.317c-0.447,0.896-4.375,8.816-4.375,11.295c0,2.773,2.259,5.033,5.035,5.033    c2.778,0,5.038-2.26,5.038-5.033c0-2.479-3.932-10.399-4.379-11.295L50.388,59.667z M50.389,75.837    c-1.963,0-3.561-1.597-3.561-3.558c0-1.415,1.939-5.915,3.561-9.288c1.623,3.373,3.563,7.873,3.563,9.288    C53.952,74.24,52.354,75.837,50.389,75.837z"></path>
				<path d="M69.868,59.667l-0.66,1.317c-0.446,0.896-4.375,8.816-4.375,11.295c0,2.773,2.259,5.033,5.035,5.033    c2.778,0,5.039-2.26,5.039-5.033c0-2.479-3.933-10.399-4.38-11.295L69.868,59.667z M69.868,75.837c-1.964,0-3.56-1.597-3.56-3.558    c0-1.415,1.938-5.915,3.56-9.288c1.622,3.373,3.563,7.873,3.563,9.288C73.432,74.24,71.833,75.837,69.868,75.837z"></path>
				<path d="M41.446,77.355l-0.659,1.316c-0.448,0.895-4.379,8.813-4.379,11.29c0,2.778,2.261,5.037,5.038,5.037    c2.778,0,5.039-2.259,5.039-5.037c0-2.478-3.931-10.396-4.38-11.29L41.446,77.355z M41.446,93.523    c-1.964,0-3.563-1.598-3.563-3.562c0-1.415,1.94-5.914,3.563-9.285c1.623,3.371,3.563,7.87,3.563,9.285    C45.01,91.927,43.411,93.523,41.446,93.523z"></path>
				<path d="M60.928,77.354l-0.66,1.318c-0.447,0.895-4.377,8.813-4.377,11.29c0,2.778,2.26,5.037,5.037,5.037    c2.775,0,5.035-2.259,5.035-5.037c0-2.478-3.928-10.396-4.376-11.29L60.928,77.354z M60.928,93.523    c-1.964,0-3.562-1.598-3.562-3.562c0-1.415,1.938-5.913,3.562-9.285c1.621,3.372,3.561,7.87,3.561,9.285    C64.486,91.927,62.891,93.523,60.928,93.523z"></path>
			</g>
		</g>
	</g>
</svg>