<svg width="310.00000000000006" height="156.42531213419278" viewBox="0 0 310.00000000000006 156.42531213419278" class="css-1j8o68f">
	<defs id="SvgjsDefs2486"></defs>
	<g id="SvgjsG2487" featurekey="symbolFeature-0" transform="matrix(0.75788621568618,0,0,0.75788621568618,119.6925248032843,-1.51577243137236)" fill="#ffebb7">
		<path xmlns="http://www.w3.org/2000/svg" d="M80.656,37.526c12.962-2.778,2.029-13.823,2.029-13.823c-5.752,5.696-4.301,10.671-3.211,12.81  c-0.477,0.142-0.993,0.404-1.453,0.802c-1.128,0.978-2.444,1.664-3.826,2.22c9.54-7.709-4.858-15.618-4.858-15.618  c-3.292,9.802,1.992,14.957,3.437,16.143c-0.951,0.326-1.914,0.619-2.852,0.923c-2.895,0.941-5.422,1.48-7.975,3.123  c-4.149,2.669-8.188,5.805-10.585,10.084c-0.274-0.451-0.555-0.898-0.846-1.341c0.055-6.687,0.849-14.604,3.302-21.542  c0.906,7.234,11.422,5.458,11.422,5.458c-2.335-7.821-7.044-9.682-9.426-10.118c2.91-5.653,7.299-10.124,13.812-11.859  C80.899,18.537,79.872,4.562,79.872,4.562c-8.143,1.62-10.378,6.264-10.989,8.557c-1.281,0.315-2.491,0.71-3.631,1.186  C68.205,7.798,57.648,2,57.648,2c-2.759,8.211,0.503,13.16,2.484,15.248c-0.896,0.679-1.735,1.416-2.52,2.205  c-0.059-6.365-9.036-9.618-9.036-9.618c-0.162,8.208,3.349,12.36,5.455,14.109c-4.481,6.964-6.351,16.082-6.853,24.584  c-1.669-1.844-3.539-3.485-5.623-4.801c-1.168-0.737-2.395-1.323-3.662-1.785c11.066-7.89-4.075-16.208-4.075-16.208  c-3.101,9.235,1.411,14.345,3.151,15.896c-2.035-0.636-4.161-0.971-6.314-1.102c3.769-10.227-11.584-8.968-11.584-8.968  c1.654,5.537,5.114,7.909,7.771,8.929c-1.935,0.069-3.859,0.255-5.725,0.493c-0.364,0.046-0.663,0.156-0.908,0.299  c-5.219-7.834-13.206,2.368-13.206,2.368c6.64,3.201,11.171,0.938,13.007-0.375c0.27,0.137,0.634,0.205,1.106,0.145  c0.701-0.088,1.406-0.155,2.114-0.206c-2.298,1.357-5.549,4.406-5.317,10.749c0,0,14.488-2.33,8.21-10.84  c2.498,0.027,4.992,0.333,7.405,0.982c-4.879,2.763-3.85,11.199-3.85,11.199c5.944-2.77,8.167-6.625,9-9.183  c0.536,0.283,1.066,0.58,1.586,0.908c5.005,3.158,6.319,8.871,8.72,14.12c4.968,10.862,1.327,23.05,3.872,34.602  c0.484,2.191,16.024,1.263,15.541-0.925c-2.731-12.391-9.391-25.21-14.947-36.773c-0.008-0.016-0.016-0.033-0.023-0.049  c1.955-5.598,7.267-9.017,12.083-12.036c0.054-0.034,0.11-0.065,0.165-0.099c-2.611,10.184,4.249,14.837,4.249,14.837  c9.669-6.616,0.625-13.585-2.686-15.74c0.873-0.47,1.771-0.912,2.683-1.343c2.127,9.556,15.726,2.775,15.726,2.775  c-3.666-3.807-7.484-5.029-10.47-5.271c1.893-0.971,3.711-2.056,5.306-3.438C80.548,37.632,80.603,37.579,80.656,37.526z"></path>
	</g>
</svg>