<svg width="310.00000000000006" height="156.42531213419278" viewBox="0 0 310.00000000000006 156.42531213419278" class="css-1j8o68f">
	<defs id="SvgjsDefs2486"></defs>
	<g id="SvgjsG2488" featurekey="nameFeature-0" transform="matrix(1.590869938088428,0,0,1.590869938088428,-2.3074726603683877,74.75503334958958)" fill="#fff4e1">
		<path d="M33.527 39.3764 c0.18641 0 0.31461 0.12914 0.31461 0.30715 c0 0.18641 -0.12961 0.31602 -0.31602 0.31602 l-7.12 0 c-0.18602 0 -0.31562 -0.12961 -0.31562 -0.31602 c0 -0.17801 0.12961 -0.30762 0.31562 -0.30762 l1.036 0 c0.578 0 0.96404 -0.4496 0.96404 -0.96404 l0 -10.441 c0 -3.974 -1.7588 -5.1424 -3.4388 -5.1424 c-3.5684 0 -5.7616 3.8096 -5.7616 8.2676 l0 7.316 c0 0.5144 0.38641 0.96404 0.9644 0.96404 l1.036 0 c0.18641 0 0.31602 0.12961 0.31602 0.30762 c0 0.18641 -0.12961 0.31602 -0.31602 0.31602 l-7.12 0 c-0.18602 0 -0.31562 -0.12961 -0.31562 -0.31602 c0 -0.17801 0.12961 -0.30762 0.31602 -0.30762 l1.036 0 c0.578 0 0.96404 -0.4496 0.96404 -0.96404 l0 -10.441 c0 -3.974 -1.7584 -5.1424 -3.4384 -5.1424 c-3.5684 0 -5.7616 3.8096 -5.7616 8.2676 l0 7.316 c0 0.5144 0.38641 0.96404 0.9644 0.96404 l1.036 0 c0.18641 0 0.31602 0.12961 0.31602 0.30762 c0 0.18641 -0.12961 0.31602 -0.31602 0.31602 l-7.12 0 c-0.18641 0 -0.31602 -0.12961 -0.31602 -0.31602 c0 -0.17801 0.12961 -0.30762 0.31602 -0.30762 l1.036 0 c0.578 0 0.96404 -0.4496 0.96404 -0.96404 l0 -14.865 c0 -0.5144 -0.38602 -0.96404 -0.96404 -0.96404 l-1.036 0 c-0.18641 0 -0.31602 -0.12961 -0.31602 -0.30762 c0 -0.18641 0.12961 -0.31602 0.31602 -0.31602 l5.12 0 l0 5.3756 c0.9876 -3.2572 3.3444 -5.6172 6.8704 -5.6172 c3.618 0 5.3064 2.0236 5.4188 5.6712 c0.9836 -3.2872 3.3536 -5.6708 6.9012 -5.6708 c3.44 0 5.4496 2.0164 5.4496 5.5228 l0 11.171 c0 0.5144 0.38641 0.96404 0.9644 0.96404 l1.036 0 z M46.697 40.25801 c-4.9268 0 -8.7656 -3.326 -8.7656 -9.33 c0 -5.7888 3.7312 -9.2728 8.7656 -9.2728 c4.8524 0 8.7572 3.1532 8.7572 9.2732 c0 6.004 -3.7808 9.3296 -8.7572 9.3296 z M46.675 39.62719 c3.1116 -0.031602 5.4456 -3.0332 5.4456 -8.6824 c0 -5.7504 -2.3684 -8.6512 -5.4236 -8.6512 c-3.0388 0 -5.432 2.9008 -5.432 8.6512 c0 5.4288 2.2564 8.6508 5.41 8.6824 z M61.8616 15.788 c0 -1.0068 0.8288 -1.8356 1.8676 -1.8356 c0.9904 0 1.8196 0.8288 1.8196 1.8356 c0 0.9904 -0.8292 1.8192 -1.8196 1.8192 c-1.0388 0 -1.8676 -0.8288 -1.8676 -1.8192 z M67.2768 39.3764 c0.18641 0 0.31558 0.12969 0.31558 0.3077 c0 0.18641 -0.12961 0.31602 -0.31602 0.31602 l-7.12 0 c-0.18641 0 -0.31602 -0.12961 -0.31602 -0.31602 c0 -0.17801 0.12961 -0.30762 0.31602 -0.30762 l1.036 0 c0.578 0 0.96404 -0.4496 0.96404 -0.96404 l0 -14.865 c0 -0.5144 -0.38602 -0.96404 -0.96404 -0.96404 l-1.036 0 c-0.18641 0 -0.31602 -0.12961 -0.31602 -0.30762 c0 -0.18641 0.12961 -0.31602 0.31602 -0.31602 l5.12 0 l0 16.452 c0 0.5144 0.38641 0.96404 0.9644 0.96404 l1.036 0 z M79.804 22.91 c0 4.3656 7.3792 6.4436 7.3792 11.489 c0 3.8096 -3.5464 5.8592 -8.1064 5.8592 c-4.1296 0 -7.3956 -2.0952 -7.3956 -5.4968 c0 -1.3016 0.7096 -1.9904 1.4396 -2.1484 l5.1332 -9.404 c0.2332 -0.9388 0.6848 -1.8316 1.168 -2.6036 c0.35879 -0.5656 0.8124 -1.0028 1.0208 -1.0028 c0.21801 0 0.33922 0.1848 0.27562 0.35442 c-0.5076 0.924 -0.9144 1.7888 -0.9144 2.9528 z M78.691 39.58836 c4.138 0 5.4948 -2.1268 5.4948 -4.4468 c0 -3.5588 -6.3848 -5.9404 -6.1848 -10.245 l-4.208 7.7476 c0.5744 0.10641 1.0856 0.5736 1.0856 1.3996 c0 1.1932 -1.4564 1.484 -1.4564 2.4936 c0 1.6068 2.3764 3.0508 5.2688 3.0508 z M104.34299999999999 36.094 c0.18602 0 0.29914 0.13797 0.29914 0.29957 c0 0.098008 -0.0816 0.4028 -0.25961 0.76404 c-0.524 1.1696 -1.8304 3.1008 -4.8992 3.1008 c-3.7352 0 -5.6248 -2.2868 -5.6248 -5.1476 l0 -12.527 l-2 0 c-0.18641 0 -0.31602 -0.12961 -0.31602 -0.31562 c0 -0.17801 0.12961 -0.30762 0.31602 -0.30762 l0.39719 0 c2.1848 0 4.0992 -1.476 4.0992 -5.116 c0 -0.18641 0.12961 -0.31602 0.31562 -0.31602 c0.17801 0 0.30762 0.12961 0.30762 0.31602 l0 5.116 l6.3132 0 c0.18602 0 0.31562 0.12961 0.31562 0.31602 c0 0.17801 -0.12961 0.30762 -0.31562 0.30762 l-6.3132 0 l0 12.527 c0 2.5736 1.2704 4.164 3.236 4.164 c1.8416 0 3.0692 -0.916 3.7508 -2.6624 c0.1284 -0.2952 0.1616 -0.5188 0.37801 -0.5188 z M125.06699999999998 30.5364 c0 0.31039 -0.14809 0.42248 -0.51488 0.42248 l-12.843 0 c0 4.5504 1.8552 8.378 6.2512 8.378 c3.5364 0 5.4576 -2.5888 6.1472 -4.4948 c0.081212 -0.21121 0.19442 -0.26762 0.31562 -0.26762 c0.22641 0 0.3148 0.16961 0.2832 0.36281 c-0.31719 1.2304 -2.2412 5.32 -7.19 5.32 c-4.894 0 -9.1656 -2.8884 -9.1656 -9.3296 c0 -5.8964 3.5808 -9.2728 8.5836 -9.2728 c4.7684 0 8.1324 3.1008 8.1324 8.8816 z M111.71739999999998 30.3684 l10.096 -0.00035156 c-0.033203 -5.4964 -1.9792 -8.084 -4.8812 -8.084 c-2.914 0 -5.0704 2.8156 -5.2144 8.0844 z M149.937 39.3764 c0.18641 0 0.31508 0.12961 0.31508 0.30762 c0 0.18641 -0.12961 0.31602 -0.31602 0.31602 l-7.12 0 c-0.18602 0 -0.31562 -0.12961 -0.31562 -0.31602 c0 -0.17801 0.12961 -0.30762 0.31602 -0.30762 l1.036 0 c0.578 0 0.96404 -0.4496 0.96404 -0.96404 l0 -10.392 c0 -4.0236 -1.9984 -5.192 -3.6784 -5.192 c-3.5684 0 -6.0016 3.8096 -6.0016 8.2676 l0 7.316 c0 0.5144 0.38641 0.96404 0.9644 0.96404 l1.036 0 c0.18641 0 0.31602 0.12961 0.31602 0.30762 c0 0.18641 -0.12961 0.31602 -0.31602 0.31602 l-7.12 0 c-0.18641 0 -0.31602 -0.12961 -0.31602 -0.31602 c0 -0.17801 0.12961 -0.30762 0.31602 -0.30762 l1.036 0 c0.578 0 0.96404 -0.4496 0.96404 -0.96404 l0 -14.865 c0 -0.5144 -0.38602 -0.96404 -0.96404 -0.96404 l-1.036 0 c-0.18641 0 -0.31602 -0.12961 -0.31602 -0.30762 c0 -0.18641 0.12961 -0.31602 0.31602 -0.31602 l5.12 0 l0 5.5 c1.0316 -3.3048 3.5408 -5.7412 7.11 -5.7412 c3.44 0 5.6896 2.0164 5.6896 5.5724 l0 11.121 c0 0.5144 0.38641 0.96404 0.9644 0.96404 l1.036 0 z M171.057 30.5364 c0 0.31039 -0.14809 0.42248 -0.51488 0.42248 l-12.843 0 c0 4.5504 1.8552 8.378 6.2512 8.378 c3.5364 0 5.4576 -2.5888 6.1472 -4.4948 c0.081212 -0.21121 0.19442 -0.26762 0.31562 -0.26762 c0.22641 0 0.3148 0.16961 0.2832 0.36281 c-0.31719 1.2304 -2.2412 5.32 -7.19 5.32 c-4.894 0 -9.1656 -2.8884 -9.1656 -9.3296 c0 -5.8964 3.5808 -9.2728 8.5836 -9.2728 c4.7684 0 8.1324 3.1008 8.1324 8.8816 z M157.7074 30.3684 l10.096 -0.00035156 c-0.033203 -5.4964 -1.9792 -8.084 -4.8812 -8.084 c-2.914 0 -5.0704 2.8156 -5.2144 8.0844 z M195.996 39.3764 c0.18641 0 0.31637 0.12961 0.31637 0.30762 c0 0.18641 -0.12961 0.31602 -0.31602 0.31602 l-5.12 0 l0 -5.3836 c-1.1092 3.3544 -3.5132 5.7048 -6.7616 5.7048 c-4.0884 0 -7.8176 -2.9176 -7.8176 -9.3548 c0 -6.084 3.7252 -9.3112 7.818 -9.3112 c3.306 0 5.6852 2.44 6.7612 5.7284 l0 -14.956 c0 -0.5144 -0.38641 -0.96404 -0.9644 -0.96404 l-1.036 0 c-0.18641 0 -0.31602 -0.12961 -0.31602 -0.30762 c0 -0.18641 0.12961 -0.31602 0.31602 -0.31602 l5.12 0 l0 27.572 c0 0.5144 0.38602 0.96404 0.96404 0.96404 l1.036 0 z M185.002 39.4012 c3.0704 0 5.8992 -3.8168 5.8992 -8.3932 c0 -4.6112 -2.862 -8.4332 -5.8992 -8.4332 c-3.1132 0 -5.3548 2.5188 -5.3548 8.4016 c0 5.906 2.2416 8.4248 5.3548 8.4248 z"></path>
	</g>
</svg>